<svg id="ic-package" xmlns="http://www.w3.org/2000/svg" width="31" height="32" viewBox="0 0 31 32">
  <g id="shipping-and-delivery">
    <path id="Path" d="M6.508,8.581,20.559,2.492,14.741.077a1,1,0,0,0-.767,0L0,5.879Z" transform="translate(0.894)" fill="#c2c2c2"/>
    <path id="Path-2" data-name="Path" d="M14.1,0,0,6.058,5.257,8.223,19.665,2.29Z" transform="translate(10.011 3.575)" fill="#c2c2c2"/>
    <path id="Path-3" data-name="Path" d="M14.3,5.859,8.6,3.522V7.947a1.013,1.013,0,0,1-2.025,0V2.692L0,0V17.777a1.01,1.01,0,0,0,.628.934l13.674,5.6Z" transform="translate(0 7.687)" fill="#c2c2c2"/>
    <path id="Path-4" data-name="Path" d="M0,5.859V24.313l13.674-5.6a1.01,1.01,0,0,0,.628-.934V0Z" transform="translate(16.268 7.687)" fill="#c2c2c2"/>
  </g>
</svg>
