<svg id="Path" xmlns="http://www.w3.org/2000/svg" width="32" height="23" viewBox="0 0 32 23">
  <g id="Path-2" data-name="Path">
    <path id="Combined_Shape" data-name="Combined Shape" d="M2.2,22.909a1.882,1.882,0,0,1-.426-.041,1.942,1.942,0,0,1-.415-.114,1.789,1.789,0,0,1-.371-.2,1.585,1.585,0,0,1-.328-.26,2.036,2.036,0,0,1-.644-1.469,1.715,1.715,0,0,1,.043-.406,1.663,1.663,0,0,1,.121-.4,2.4,2.4,0,0,1,.207-.354,1.524,1.524,0,0,1,.273-.312,2.26,2.26,0,0,1,3.079,0,1.524,1.524,0,0,1,.273.312,2.4,2.4,0,0,1,.207.354,1.727,1.727,0,0,1,.164.4,1.7,1.7,0,0,1,0,.406,1.619,1.619,0,0,1,0,.407,1.706,1.706,0,0,1-.164.436,1.631,1.631,0,0,1-.207.355,1.524,1.524,0,0,1-.273.312,1.609,1.609,0,0,1-.328.26,1.879,1.879,0,0,1-.383.2,1.835,1.835,0,0,1-.4.114,1.871,1.871,0,0,1-.426,0Zm6.288,0a2.089,2.089,0,0,1,0-4.165h12.49a2.089,2.089,0,0,1,0,4.165ZM2.2,13.537a1.882,1.882,0,0,1-.426-.041,1.942,1.942,0,0,1-.415-.114,1.833,1.833,0,0,1-.371-.2,1.615,1.615,0,0,1-.328-.26,2.031,2.031,0,0,1-.284-.313,2.156,2.156,0,0,1-.2-.354,2.2,2.2,0,0,1-.164-.8A2.034,2.034,0,0,1,.656,9.986a2.26,2.26,0,0,1,3.079,0,1.524,1.524,0,0,1,.273.312,2,2,0,0,1,.207.365,1.648,1.648,0,0,1,.164.385,1.7,1.7,0,0,1,0,.406,1.612,1.612,0,0,1,0,.406,1.7,1.7,0,0,1-.164.437,1.668,1.668,0,0,1-.207.355,1.524,1.524,0,0,1-.273.312,1.609,1.609,0,0,1-.328.26,1.879,1.879,0,0,1-.383.2,1.835,1.835,0,0,1-.4.114,1.98,1.98,0,0,1-.426,0Zm6.251,0a1.991,1.991,0,0,1-1.885-2.083A1.991,1.991,0,0,1,8.446,9.372H29.177a1.991,1.991,0,0,1,1.885,2.083,1.991,1.991,0,0,1-1.885,2.083ZM1.769,4.165a1.9,1.9,0,0,1-.458-.156,1.854,1.854,0,0,1-.371-.2,1.9,1.9,0,0,1-.328-.25,1.948,1.948,0,0,1-.274-.323,2.359,2.359,0,0,1-.207-.354,1.809,1.809,0,0,1-.12-.4,1.612,1.612,0,0,1,0-.406A2.034,2.034,0,0,1,.656.615a2.258,2.258,0,0,1,3.079,0,2.037,2.037,0,0,1,.643,1.468,1.7,1.7,0,0,1,0,.406,1.829,1.829,0,0,1-.164.4,2.359,2.359,0,0,1-.207.354,1.943,1.943,0,0,1-.273.323,2.239,2.239,0,0,1-1.54.6,1.98,1.98,0,0,1-.426,0Zm6.64,0A1.976,1.976,0,0,1,6.562,2.083,1.976,1.976,0,0,1,8.41,0H26.881a1.976,1.976,0,0,1,1.848,2.083,1.976,1.976,0,0,1-1.848,2.083Z" fill="#c2c2c2"/>
  </g>
</svg>
