<svg id="logout_5_" data-name="logout (5)" xmlns="http://www.w3.org/2000/svg" width="19" height="19" viewBox="0 0 19 19">
  <g id="logout_5_2" data-name="logout (5)" transform="translate(0.001)">
    <path id="Path" d="M.06,2.856A.8.8,0,0,1,.232,2.6L2.606.231A.79.79,0,0,1,3.725,1.347L2.7,2.368H7.124a.789.789,0,1,1,0,1.579H2.7L3.725,4.968A.79.79,0,0,1,2.606,6.084L.232,3.716a.79.79,0,0,1-.172-.86Z" transform="translate(0 5.527)" fill="#a2a2a2"/>
    <path id="Path-2" data-name="Path" d="M.792,11.053a.79.79,0,0,1,.792.789v3.947H4.75V3.158A.791.791,0,0,1,5.314,2.4l2.749-.823H1.583V5.526A.792.792,0,0,1,0,5.526V.789A.79.79,0,0,1,.792,0H13.458a.707.707,0,0,1,.082.015.783.783,0,0,1,.336.117c.017.011.039.012.055.024s.009.013.015.018a.783.783,0,0,1,.211.249.643.643,0,0,1,.022.066.747.747,0,0,1,.063.185.49.49,0,0,1,0,.069c0,.016.011.03.011.046V16.579a.789.789,0,0,1-.637.774L5.7,18.932a.739.739,0,0,1-.155.016.791.791,0,0,1-.792-.789v-.789H.792A.79.79,0,0,1,0,16.579V11.842A.79.79,0,0,1,.792,11.053Z" transform="translate(4.749)" fill="#a2a2a2"/>
  </g>
</svg>
