<svg id="interface_3_" data-name="interface (3)" xmlns="http://www.w3.org/2000/svg" width="30" height="23" viewBox="0 0 30 23">
  <g id="interface_3_2" data-name="interface (3)">
    <path id="Combined_Shape" data-name="Combined Shape" d="M15.241,22.653a.525.525,0,0,1-.391-.156.54.54,0,0,1-.153-.4V18.784a.545.545,0,0,1,.153-.4.525.525,0,0,1,.391-.156H29.38a.527.527,0,0,1,.392.156.544.544,0,0,1,.152.4V22.1a.541.541,0,0,1-.153.4.525.525,0,0,1-.391.156ZM5.6,22.5.167,16.969a.531.531,0,0,1-.119-.6.5.5,0,0,1,.509-.345H3.821V.553a.542.542,0,0,1,.152-.4A.525.525,0,0,1,4.364,0H7.627a.527.527,0,0,1,.391.156.542.542,0,0,1,.152.4V16.02h3.263a.524.524,0,0,1,.391.155.547.547,0,0,1,.153.4.657.657,0,0,1-.17.414L6.386,22.5a.563.563,0,0,1-.391.155A.6.6,0,0,1,5.6,22.5Zm9.636-8.689a.526.526,0,0,1-.392-.155.544.544,0,0,1-.152-.4V9.94a.542.542,0,0,1,.152-.4.527.527,0,0,1,.392-.156H26.117a.525.525,0,0,1,.391.156.543.543,0,0,1,.153.4v3.317a.545.545,0,0,1-.153.4.524.524,0,0,1-.391.155Zm0-8.843a.527.527,0,0,1-.392-.156.542.542,0,0,1-.152-.4V1.1a.546.546,0,0,1,.152-.4.526.526,0,0,1,.392-.155h7.613A.524.524,0,0,1,23.244.7a.543.543,0,0,1,.153.4V4.413a.539.539,0,0,1-.153.4.525.525,0,0,1-.391.156Z" fill="#c2c2c2"/>
  </g>
</svg>
