<svg id="ic-deliver" xmlns="http://www.w3.org/2000/svg" width="35" height="32" viewBox="0 0 35 32">
  <g id="shipping-and-delivery_1_" data-name="shipping-and-delivery (1)">
    <path id="Path" d="M34,21.013a1.13,1.13,0,0,0-1.405-.756h-.038L18.691,24.79A4.739,4.739,0,0,0,14.4,22.637L8.093,3.6A4.958,4.958,0,0,0,3.839.234L1.256.008A1.126,1.126,0,0,0,0,1.028,1.2,1.2,0,0,0,1.028,2.274L3.611,2.5A2.657,2.657,0,0,1,5.89,4.314L12.2,23.393a4.637,4.637,0,0,0-1.481,6.422,4.692,4.692,0,0,0,6.457,1.473,4.547,4.547,0,0,0,2.165-4.269L33.2,22.486A1.194,1.194,0,0,0,34,21.013Z" fill="#00a00c"/>
    <path id="Path-2" data-name="Path" d="M14.6,9.764,11.5.585a.884.884,0,0,0-1.111-.54L.6,3.156a.848.848,0,0,0-.556,1.08l3.1,9.179a.884.884,0,0,0,1.111.54l9.79-3.111A.848.848,0,0,0,14.6,9.764Z" transform="translate(15.446 1.641)" fill="#00a00c"/>
  </g>
</svg>
