<svg width="20" height="23" viewBox="0 0 20 23" fill="none" xmlns="http://www.w3.org/2000/svg">
<path d="M9.99998 1C5.83331 1 2.27498 3.59167 0.833313 7.25C2.27498 10.9083 5.83331 13.5 9.99998 13.5C14.1666 13.5 17.725 10.9083 19.1666 7.25C17.725 3.59167 14.1666 1 9.99998 1ZM9.99998 11.4167C7.69998 11.4167 5.83331 9.55 5.83331 7.25C5.83331 4.95 7.69998 3.08333 9.99998 3.08333C12.3 3.08333 14.1666 4.95 14.1666 7.25C14.1666 9.55 12.3 11.4167 9.99998 11.4167ZM9.99998 4.75C8.61665 4.75 7.49998 5.86667 7.49998 7.25C7.49998 8.63333 8.61665 9.75 9.99998 9.75C11.3833 9.75 12.5 8.63333 12.5 7.25C12.5 5.86667 11.3833 4.75 9.99998 4.75Z" fill="#A2A2A2"/>
</svg>
