<?xml version="1.0" encoding="UTF-8"?>
<svg width="309px" height="287px" viewBox="0 0 309 287" version="1.1" xmlns="http://www.w3.org/2000/svg" xmlns:xlink="http://www.w3.org/1999/xlink">
    <!-- Generator: Sketch 53 (72520) - https://sketchapp.com -->
    <title>Group</title>
    <desc>Created with Sketch.</desc>
    <g id="Page" stroke="none" stroke-width="1" fill="none" fill-rule="evenodd">
        <g id="9.1.-Yuk-Market---Existing---Splash" transform="translate(-26.000000, -224.000000)">
            <g id="Group" transform="translate(26.250000, 224.000000)">
                <path d="M157.696,287 C224.104486,287 308,248.922856 308,164.592011 C308,80.2611672 261.184,-24.0677234 190.2208,4.95685124 C119.2576,33.9814258 0,78.9992291 0,163.330073 C0,247.660918 91.2875144,287 157.696,287 Z" id="Oval" fill="#FFF8EA"></path>
                <g id="yukmarket-logo3" transform="translate(72.750000, 82.000000)">
                    <g stroke-width="1" fill-rule="evenodd" transform="translate(0.000000, 8.330000)">
                        <g id="Group" transform="translate(0.000000, 102.064748)" fill-rule="nonzero">
                            <polygon id="Path" fill="#00A00C" points="18.4928009 8.77097856 7.10838074 35.9369646 3.58562363 35.9369646 7.81293217 26.4325943 0.32214442 8.77097856 4.03052516 8.77097856 9.44448578 22.315565 9.51888403 22.315565 14.7847921 8.77097856 18.4928009 8.77097856"></polygon>
                            <path d="M36.6630853,27.6257068 L33.3999781,27.6257068 L33.3999781,25.0094284 L33.2519256,25.0094284 C32.7326258,25.93273 31.9354486,26.7024053 30.8600219,27.3176823 C29.7845952,27.9337313 28.6660175,28.2413698 27.5042888,28.2413698 C25.2794092,28.2413698 23.5671335,27.5813173 22.3682057,26.2596683 C21.1689059,24.9387912 20.569628,23.0597646 20.569628,20.6225882 L20.569628,8.77097856 L23.9811597,8.77097856 L23.9811597,20.3917628 C24.055558,23.4700779 25.5509628,25.0094284 28.4681182,25.0094284 C29.8273742,25.0094284 30.9649234,24.4385409 31.8796499,23.2967659 C32.7940044,22.1557628 33.2515536,20.7897243 33.2515536,19.1986503 L33.2515536,8.77097856 L36.6630853,8.77097856 L36.6630853,27.6257068 L36.6630853,27.6257068 Z" id="Path" fill="#00A00C"></path>
                            <polygon id="Path" fill="#00A00C" points="56.7989716 27.6257068 52.6828884 27.6257068 47.0092779 18.7369996 44.2278993 21.5844893 44.2278993 27.6257068 40.8163676 27.6257068 40.8163676 0.0744971554 44.2278993 0.0744971554 44.2278993 17.0440228 52.0895624 8.77097856 56.4652954 8.77097856 56.4652954 8.92499081 49.3822101 16.2357479 56.7989716 27.4716945"></polygon>
                            <path d="M62.1385339,27.6257068 L58.7266302,27.6257068 L58.7266302,8.77097856 L61.9901094,8.77097856 L61.9901094,11.3876429 L62.1381619,11.3876429 C62.6570897,10.4639554 63.4546389,9.69428009 64.5300656,9.07900306 C65.6054923,8.46372604 66.6742232,8.15531554 67.7377462,8.15531554 C69.0724508,8.15531554 70.2464551,8.47646389 71.2608753,9.11721663 C72.2738074,9.75874136 73.015558,10.6438293 73.4853829,11.7724805 C74.9930635,9.36116586 77.0825383,8.15531554 79.7526915,8.15531554 C81.853698,8.15531554 83.4733479,8.82270197 84.6105252,10.1563168 C85.7477024,11.4907037 86.316477,13.3886442 86.316477,15.8512963 L86.316477,27.6260928 L82.9045733,27.6260928 L82.9045733,16.3901462 C82.9045733,14.6203562 82.5950766,13.3442547 81.9775711,12.5614556 C81.3593217,11.7794284 80.3210941,11.3880289 78.8628884,11.3880289 C77.5523632,11.3880289 76.4523851,11.9650923 75.5622101,13.1196053 C74.672035,14.2737322 74.2275055,15.6339807 74.2275055,17.198035 L74.2275055,27.6260928 L70.8156018,27.6260928 L70.8156018,16.3901462 C70.8156018,14.6203562 70.506105,13.3442547 69.8885996,12.5614556 C69.2703501,11.7794284 68.2321225,11.3880289 66.7739168,11.3880289 C65.4633917,11.3880289 64.3634136,11.9650923 63.4732385,13.1196053 C62.5830635,14.2737322 62.1385339,15.6339807 62.1385339,17.198035 L62.1385339,27.6257068 Z" id="Path" fill="#FF8900"></path>
                            <path d="M97.0339168,8.15531554 C99.5552735,8.15531554 101.545055,8.85473961 103.004376,10.2528158 C104.462582,11.6512779 105.192057,13.5685182 105.192057,16.0053085 L105.192057,27.6257068 L101.92895,27.6257068 L101.92895,25.0094284 L101.780897,25.0094284 C100.371794,27.164056 98.4924945,28.2413698 96.1444858,28.2413698 C94.1416849,28.2413698 92.4666083,27.6257068 91.119628,26.3943807 C89.7719037,25.1634407 89.0982276,23.6240902 89.0982276,21.7771011 C89.0982276,19.8278232 89.8087309,18.2753488 91.2304814,17.1212219 C92.651488,15.967095 94.5493873,15.3896455 96.9226915,15.3896455 C98.9496718,15.3896455 100.618425,15.7744832 101.92895,16.5441584 L101.92895,15.7358836 C101.92895,14.5045575 101.459125,13.4596674 100.519847,12.5996691 C99.5801969,11.7404429 98.4805908,11.3108298 97.2195405,11.3108298 C95.3156893,11.3108298 93.8080088,12.1445803 92.6953829,13.8116954 L89.6919256,11.8492937 C91.3472867,9.38664158 93.7946171,8.15531554 97.0339168,8.15531554 Z M92.6209847,21.8539142 C92.6209847,22.7776018 92.9978118,23.546891 93.7518381,24.162554 C94.5058643,24.7782171 95.3893435,25.0862416 96.4033917,25.0862416 C97.837046,25.0862416 99.1163239,24.5346538 100.241597,23.4314783 C101.365755,22.3290748 101.928578,21.0332875 101.928578,19.5452744 C100.865427,18.6733103 99.3819256,18.2367492 97.4788184,18.2367492 C96.093523,18.2367492 94.9384902,18.5829873 94.011488,19.2754635 C93.0844858,19.9683256 92.6209847,20.8283239 92.6209847,21.8539142 Z" id="Shape" fill="#FF8900"></path>
                            <path d="M112.460022,27.6257068 L109.04849,27.6257068 L109.04849,8.77097856 L112.311597,8.77097856 L112.311597,11.8492937 L112.45965,11.8492937 C112.805602,10.848793 113.516477,9.99612867 114.591904,9.29014267 C115.66733,8.58492867 116.723786,8.23212867 117.762013,8.23212867 C118.750766,8.23212867 119.591466,8.38575492 120.283742,8.69377943 L119.245514,12.1183326 C118.824792,11.9392306 118.157068,11.8492937 117.242713,11.8492937 C115.957112,11.8492937 114.838162,12.3881435 113.88698,13.4654573 C112.934683,14.5431571 112.459278,15.8003449 112.459278,17.2366346 L112.459278,27.6257068 L112.460022,27.6257068 Z" id="Path" fill="#FF8900"></path>
                            <polygon id="Path" fill="#FF8900" points="138.676849 27.6257068 134.560766 27.6257068 128.887155 18.7369996 126.105777 21.5844893 126.105777 27.6257068 122.694245 27.6257068 122.694245 0.0744971554 126.105777 0.0744971554 126.105777 17.0440228 133.96744 8.77097856 138.343545 8.77097856 138.343545 8.92499081 131.26046 16.2357479 138.677221 27.4716945 138.677221 27.6257068"></polygon>
                            <path d="M148.206893,28.2413698 C145.53674,28.2413698 143.336411,27.2925926 141.60628,25.3938801 C139.875777,23.4959396 139.010153,21.0973628 139.010153,18.1981497 C139.010153,15.3255702 139.850481,12.9331694 141.531882,11.021719 C143.21291,9.1110407 145.363764,8.15492954 147.984442,8.15492954 C150.678775,8.15492954 152.823676,9.05931729 154.418403,10.8677068 C156.012757,12.6764823 156.810306,15.2097716 156.810306,18.4671886 L156.773107,18.8520263 L142.496083,18.8520263 C142.545186,20.6986293 143.138884,22.1870284 144.276061,23.3152937 C145.412867,24.4443309 146.772867,25.0086565 148.355317,25.0086565 C150.53035,25.0086565 152.236302,23.8800053 153.472801,21.6223168 L156.513457,23.1616674 C155.698053,24.7523554 154.566827,25.9964193 153.120525,26.8938591 C151.674595,27.7924569 150.036346,28.2413698 148.206893,28.2413698 Z M142.755733,15.9281094 L153.176324,15.9281094 C153.077002,14.6199702 152.564398,13.5364805 151.637396,12.6768683 C150.710394,11.817256 149.467943,11.3876429 147.910416,11.3876429 C146.624442,11.3876429 145.51814,11.7979562 144.591138,12.6189689 C143.664136,13.4399816 143.052582,14.5431571 142.755733,15.9281094 Z" id="Shape" fill="#FF8900"></path>
                            <path d="M166.562801,27.9337313 C165.079672,27.9337313 163.849497,27.4593427 162.87302,26.5101794 C161.896171,25.5614022 161.39547,24.2397532 161.371291,22.5463904 L161.371291,12.0033059 L158.18221,12.0033059 L158.18221,8.77097856 L161.371291,8.77097856 L161.371291,2.999186 L164.782823,2.999186 L164.782823,8.77097856 L169.232954,8.77097856 L169.232954,12.0033059 L164.782823,12.0033059 L164.782823,21.3922635 C164.782823,22.6494512 165.017549,23.5025015 165.487746,23.9510284 C165.957199,24.4003274 166.488775,24.6245908 167.082101,24.6245908 C167.353654,24.6245908 167.619628,24.5925532 167.87965,24.5284779 C168.139672,24.4644026 168.38035,24.3810276 168.602801,24.2783527 L169.678228,27.433867 C168.787681,27.7665952 167.749453,27.9337313 166.562801,27.9337313 Z" id="Path" fill="#FF8900"></path>
                        </g>
                        <path d="M75.2586925,72.4110903 C41.5747196,56.6916028 46.2771991,15.215733 46.2771991,15.215733 C31.3975492,58.4472429 71.9445952,86.6249234 71.9445952,86.6249234 C71.9445952,86.6249234 71.3418821,90.5858122 70.5793898,94.9839199 C64.5540398,96.4848242 57.7234573,96.9916293 50.3691028,95.5028228 C42.0547265,93.8194958 35.2908096,90.8384516 31.3975492,87.3969147 C1.26625821,60.7632166 33.3036324,9.3451256 48.8811379,0.16190372 C49.2709847,3.79450853 49.2531291,14.0577462 67.7689934,28.8483265 C72.537888,32.657714 78.0104863,36.7281909 83.1018124,41.0752388 C75.756038,49.9292535 70.8712986,60.2547282 70.2765858,69.7393426 C71.8361487,70.6941186 73.4947884,71.5879194 75.2586925,72.4110903 Z" id="Combined-Shape" fill="#00A00C" fill-rule="nonzero"></path>
                    </g>
                    <path d="M89.3082736,102.964693 C89.0610931,100.933078 88.7998318,98.8758953 88.6842013,96.4989059 C140.184158,67.7661637 138.90302,21.2297593 138.90302,21.2297593 C127.743282,71.0231947 80.8723851,82.9890591 80.8723851,82.9890591 C76.9111446,81.6445457 73.3957117,79.9788947 70.2765858,78.0693426 C71.457771,59.2315331 89.5621147,37.0767253 110.259694,29.721663 C133.417265,21.4922363 138.065295,3.98617681 140.018993,0 C158.666667,15.68 166.694444,68.6 136.671072,93.4109409 C125.289678,102.816384 103.994786,106.031866 89.3082736,102.964693 Z" id="Combined-Shape" fill="#FF8900" fill-rule="nonzero"></path>
                </g>
            </g>
        </g>
    </g>
</svg>