<svg xmlns="http://www.w3.org/2000/svg" width="27.964" height="25.963" viewBox="0 0 27.964 25.963">
  <g id="commerce-and-shopping" transform="translate(0 -0.018)">
    <g id="commerce-and-shopping-2" data-name="commerce-and-shopping">
      <path id="Path" d="M27.72,5.174a1.143,1.143,0,0,0-.905-.447H4.951L4.626,1.059A1.154,1.154,0,0,0,3.482,0H1.148A1.156,1.156,0,0,0,0,1.163,1.156,1.156,0,0,0,1.148,2.327H2.432L3.691,16.533c0,.017,0,.033,0,.05a1.185,1.185,0,0,0,.016.131l.046.519c0,.01,0,.02,0,.029a4.493,4.493,0,0,0,1.651,3,3.534,3.534,0,0,0,2.742,5.7,3.509,3.509,0,0,0,3.482-3.527,3.552,3.552,0,0,0-.208-1.2h6.286a3.551,3.551,0,0,0-.208,1.2,3.482,3.482,0,1,0,3.482-3.527H8.156A2.132,2.132,0,0,1,6.2,17.6l18.354-1.093a1.152,1.152,0,0,0,1.047-.879l2.334-9.455A1.176,1.176,0,0,0,27.72,5.174Z" transform="translate(0 0.019)" fill="#fff"/>
    </g>
  </g>
</svg>
