<svg id="ic-order-done" xmlns="http://www.w3.org/2000/svg" width="41" height="32" viewBox="0 0 41 32">
  <path id="Path" d="M13.6,2.294a3.36,3.36,0,0,1-2.91,1.724A3.269,3.269,0,0,1,9.47,3.783L0,0V6.351A1.2,1.2,0,0,0,.774,7.484l14.019,5.2V.177Z" transform="translate(3.925 19.321)" fill="#00a00c"/>
  <path id="Path-2" data-name="Path" d="M3.954,4.082A3.436,3.436,0,0,1,.991,2.374L0,.665V12.679L14.306,7.518a1.194,1.194,0,0,0,.788-1.123V0l-9.9,3.85A3.406,3.406,0,0,1,3.954,4.082Z" transform="translate(21.132 19.321)" fill="#00a00c"/>
  <path id="Path-3" data-name="Path" d="M25.66,4.643,13.353.073a1.164,1.164,0,0,0-.8,0L0,4.651,12.82,9.358Z" transform="translate(7.245)" fill="#00a00c"/>
  <path id="Path-4" data-name="Path" d="M36.1.561A1.1,1.1,0,0,0,34.763.067L20.076,5.43,5.389.067A1.1,1.1,0,0,0,4.051.561L.16,7.406A1.162,1.162,0,0,0,0,8.029a1.117,1.117,0,0,0,.706,1l13.778,5.391a1.1,1.1,0,0,0,1.358-.48L20.076,6.3l4.232,7.632a1.1,1.1,0,0,0,1.358.48L39.444,9.024a1.112,1.112,0,0,0,.643-.668A1.124,1.124,0,0,0,40,7.429Z" transform="translate(0 6.34)" fill="#00a00c"/>
</svg>
